<svg width="24" height="24" viewBox="0 0 24 24" fill="none" xmlns="http://www.w3.org/2000/svg">
<path d="M20.1 15.3C20.6951 14.1219 21.0034 12.8199 21 11.5V11C20.885 8.91568 20.0052 6.94699 18.5291 5.47089C17.053 3.99479 15.0843 3.11502 13 3.00003H12.5C11.1801 2.99659 9.87812 3.30496 8.7 3.90003C7.28825 4.6056 6.10083 5.69028 5.27072 7.03258C4.44061 8.37488 4.00061 9.92179 4 11.5C3.99656 12.8199 4.30493 14.1219 4.9 15.3L3 21L8.7 19.1C9.87812 19.6951 11.1801 20.0035 12.5 20C14.0782 19.9994 15.6251 19.5594 16.9674 18.7293C18.3098 17.8992 19.3944 16.7118 20.1 15.3Z" stroke="current" stroke-width="2" stroke-linecap="round" stroke-linejoin="round"/>
</svg>
