<?xml version="1.0" standalone="no"?>
<!DOCTYPE svg PUBLIC "-//W3C//DTD SVG 20010904//EN"
 "http://www.w3.org/TR/2001/REC-SVG-20010904/DTD/svg10.dtd">
<svg version="1.0" xmlns="http://www.w3.org/2000/svg"
 width="100.000000pt" height="100.000000pt" viewBox="0 0 100.000000 100.000000"
 preserveAspectRatio="xMidYMid meet">

<g transform="translate(0.000000,100.000000) scale(0.100000,-0.100000)"
fill="current" stroke="current">
<path d="M732 874 c-18 -14 -82 -85 -143 -157 -61 -73 -115 -133 -119 -135 -5
-2 -43 28 -87 66 -117 103 -183 152 -203 152 -37 0 -43 -25 -48 -208 -5 -184
8 -345 33 -429 32 -105 85 -80 240 111 40 50 86 104 103 119 l30 29 119 -101
c123 -106 155 -124 179 -99 46 46 45 453 -1 614 -20 71 -48 81 -103 38z m63
-36 c20 -84 26 -142 32 -289 3 -91 3 -187 -1 -213 l-8 -49 -32 75 c-68 155
-113 186 -206 138 -55 -28 -102 -71 -172 -159 -66 -82 -178 -201 -189 -201 -4
0 -15 33 -24 73 -19 78 -34 432 -20 484 7 27 7 26 29 -27 54 -131 101 -190
152 -190 33 0 104 37 104 54 0 8 7 13 16 12 9 0 46 33 81 74 116 135 214 240
224 240 5 0 11 -10 14 -22z m-402 -272 l29 -23 -32 -13 c-45 -19 -70 -3 -108
68 -18 33 -32 65 -32 72 0 10 43 -21 143 -104z m301 -119 c27 -35 67 -119 61
-125 -5 -5 -122 87 -148 116 -18 20 -18 21 0 31 33 19 61 12 87 -22z"/>
</g>
</svg>
