<svg width="24" height="24" viewBox="0 0 24 24" fill="none" xmlns="http://www.w3.org/2000/svg">
<path d="M9.87868 1.87868C10.4413 1.31607 11.2044 1 12 1C12.7956 1 13.5587 1.31607 14.1213 1.87868C14.6839 2.44129 15 3.20435 15 4V12C15 12.7956 14.6839 13.5587 14.1213 14.1213C13.5587 14.6839 12.7956 15 12 15C11.2044 15 10.4413 14.6839 9.87868 14.1213C9.31607 13.5587 9 12.7956 9 12V4C9 3.20435 9.31607 2.44129 9.87868 1.87868Z" stroke="#617485" stroke-width="2" stroke-linecap="round" stroke-linejoin="round"/>
<path d="M19 10V12C19 13.8565 18.2625 15.637 16.9497 16.9497C15.637 18.2625 13.8565 19 12 19C10.1435 19 8.36301 18.2625 7.05025 16.9497C5.7375 15.637 5 13.8565 5 12V10" stroke="#617485" stroke-width="2" stroke-linecap="round" stroke-linejoin="round"/>
<path d="M12 19V23" stroke="#617485" stroke-width="2" stroke-linecap="round" stroke-linejoin="round"/>
<path d="M8 23H16" stroke="#617485" stroke-width="2" stroke-linecap="round" stroke-linejoin="round"/>
</svg>
